<?xml version="1.0" standalone="no"?>
<!DOCTYPE svg PUBLIC "-//W3C//DTD SVG 20010904//EN"
 "http://www.w3.org/TR/2001/REC-SVG-20010904/DTD/svg10.dtd">
<svg version="1.0" xmlns="http://www.w3.org/2000/svg"
 width="192.000000pt" height="192.000000pt" viewBox="0 0 192.000000 192.000000"
 preserveAspectRatio="xMidYMid meet">

<g transform="translate(0.000000,192.000000) scale(0.100000,-0.100000)"
fill="#000000" stroke="none">
<path d="M847 1732 l-127 -127 42 -43 42 -42 -34 -31 c-35 -30 -31 -31 33 -6
26 11 31 8 100 -61 l72 -72 72 72 73 72 42 -16 c24 -9 52 -19 63 -24 11 -4 0
11 -25 34 l-45 40 40 41 39 41 -124 125 c-69 69 -127 125 -130 125 -3 0 -63
-57 -133 -128z m238 -223 c-52 -52 -100 -95 -105 -97 -11 -4 -200 180 -200
194 0 5 44 53 97 106 l98 98 103 -103 103 -103 -96 -95z"/>
<path d="M175 1320 l-130 -130 127 -127 128 -127 38 37 c21 20 41 37 45 37 5
0 19 -12 33 -27 l26 -28 -7 25 c-20 72 -20 72 47 136 54 52 70 62 113 69 l50
8 -54 12 c-36 9 -64 23 -85 44 l-31 32 40 35 40 35 -40 -17 c-22 -9 -45 -18
-52 -21 -7 -3 -45 27 -85 66 -40 39 -73 71 -73 71 0 0 -59 -59 -130 -130z
m238 -222 c-54 -54 -102 -98 -108 -98 -6 0 -55 45 -109 99 l-99 99 102 103
102 103 104 -104 105 -105 -97 -97z"/>
<path d="M1577 1379 l-68 -69 -37 16 c-84 36 -89 36 -44 -2 23 -19 42 -41 42
-48 0 -26 -51 -60 -108 -72 l-57 -12 51 -7 c47 -7 58 -14 119 -75 l68 -68 -17
-44 -16 -43 24 28 c14 15 28 27 33 27 4 0 24 -17 45 -37 l38 -37 130 129 130
130 -127 127 c-70 71 -130 127 -133 127 -3 -1 -36 -32 -73 -70z m180 -81 l103
-102 -97 -98 c-54 -54 -102 -98 -108 -98 -6 0 -55 45 -110 100 l-100 100 100
100 c55 55 101 100 104 100 2 0 51 -46 108 -102z"/>
<path d="M962 870 c-1 -91 -5 -222 -9 -291 l-6 -126 -28 -10 c-35 -13 -31 -17
-143 160 -48 75 -90 137 -93 137 -2 0 34 -74 81 -164 l85 -164 -23 -21 c-28
-26 -32 -26 -91 0 -25 11 -49 19 -51 16 -3 -2 17 -20 43 -39 l48 -34 -1 -89
-1 -90 -43 -32 c-50 -38 -48 -40 15 -13 l47 20 40 -34 c22 -19 54 -38 72 -42
17 -3 38 -13 48 -21 10 -9 18 -11 22 -4 4 6 25 15 47 21 22 6 57 27 78 46 42
37 36 37 124 0 20 -9 37 -14 37 -12 0 2 -21 20 -48 39 l-47 35 0 91 1 91 42
31 c23 17 42 32 42 35 0 2 -21 -6 -46 -16 -58 -25 -66 -25 -93 4 l-23 25 77
148 c42 81 73 144 67 138 -14 -14 -70 -102 -122 -190 -44 -74 -46 -76 -79 -71
-19 3 -38 11 -43 18 -4 7 -8 90 -9 183 -1 94 -5 220 -9 280 l-7 110 -1 -165z
m78 -475 c49 -25 83 -79 86 -138 l3 -52 -8 51 c-16 97 -62 138 -158 139 -67 0
-95 -17 -134 -80 -11 -16 -19 -25 -19 -20 0 22 42 76 72 95 40 24 116 26 158
5z m-233 -162 c-3 -10 -5 -2 -5 17 0 19 2 27 5 18 2 -10 2 -26 0 -35z m296
-71 c-24 -33 -80 -72 -102 -72 -9 1 -2 7 14 14 17 7 46 31 65 53 39 44 55 48
23 5z m-183 -61 c15 -6 18 -10 9 -10 -22 -1 -79 39 -97 69 -12 19 -6 16 24
-12 21 -20 50 -41 64 -47z"/>
</g>
</svg>
